<?xml version="1.0" encoding="utf-8"?>
<!-- Generator: Adobe Illustrator 16.0.0, SVG Export Plug-In . SVG Version: 6.00 Build 0)  -->
<!DOCTYPE svg PUBLIC "-//W3C//DTD SVG 1.1//EN" "http://www.w3.org/Graphics/SVG/1.1/DTD/svg11.dtd">
<svg version="1.1" id="Layer_1" xmlns="http://www.w3.org/2000/svg" xmlns:xlink="http://www.w3.org/1999/xlink" x="0px" y="0px"
	 width="500px" height="500px" viewBox="0 0 500 500" enable-background="new 0 0 500 500" xml:space="preserve">
<g id="New_Symbol">
	
		<path fill="#ACB394" stroke="#000000" stroke-width="4" stroke-linecap="round" stroke-linejoin="round" stroke-miterlimit="10" d="
		M343.785,145.007c-5.407-18.922,3.434-31.557,21.684-36.297c10.391-2.699,26.531-1.445,38.066-0.824
		c10.959,0.589,26.322-1.773,38.197-8.932c30.99-18.678,50.643-60.654,15.896-85.467c47.035,27.526,23.398,130.584-44.902,150.967
		c-21.428,6.394-36.678,8.555-52.938-4.338L343.785,145.007z"/>
	<path fill="#FFFA2A" d="M359.342,160.563c10.605,26.164,0.062,25.521-80.012,116.566c-60.394,68.669-75.9,80.959-140.812,127.416
		c-49.753,35.607-107.807,81.82-120.659,81.943c0.124-12.852,46.337-70.904,81.944-120.658
		c46.457-64.912,58.747-80.419,127.416-140.812c91.045-80.074,90.402-90.617,116.566-80.012L359.342,160.563z"/>
	<g>
		<g>
			<path fill="#B2FBFC" d="M230.412,299.938c-6.945,0-13.474-2.705-18.385-7.616c-4.911-4.91-7.616-11.439-7.616-18.384
				s2.704-13.474,7.615-18.385c4.91-4.911,11.439-7.615,18.385-7.615s13.475,2.704,18.385,7.615
				c10.138,10.138,10.138,26.632,0,36.77C243.885,297.233,237.356,299.938,230.412,299.938z"/>
			<path d="M230.411,249.938c6.143,0,12.285,2.344,16.971,7.029c9.372,9.372,9.372,24.569,0,33.941
				c-4.686,4.686-10.829,7.029-16.97,7.029c-6.143,0-12.284-2.343-16.971-7.03c-9.373-9.372-9.374-24.567-0.001-33.94
				C218.126,252.281,224.269,249.938,230.411,249.938 M230.411,245.938c-7.479,0-14.511,2.913-19.799,8.201
				c-5.289,5.288-8.201,12.32-8.201,19.799s2.913,14.51,8.202,19.798c5.288,5.289,12.32,8.202,19.799,8.202
				c7.479,0,14.51-2.912,19.798-8.201c5.288-5.288,8.201-12.319,8.201-19.799s-2.913-14.511-8.201-19.799
				C244.922,248.85,237.891,245.938,230.411,245.938L230.411,245.938z"/>
		</g>
		<path fill="#EAFEFE" d="M244.347,287.873c-7.696,7.696-7.696-35.567,0-27.871S252.043,280.177,244.347,287.873z"/>
	</g>
	<path fill="#E62E25" stroke="#000000" stroke-width="4" stroke-miterlimit="10" d="M352.387,160.564
		c1.92,1.92,5.033,1.92,6.955-0.001c1.92-1.92,1.92-5.033,0-6.953l-8.604-8.603c-1.92-1.921-5.033-1.921-6.953-0.001
		c-1.921,1.921-1.921,5.034,0,6.955L352.387,160.564z"/>
	<path fill="#F6B930" d="M128.823,392.968c3.183,3.889,38.655-24.514,47.022-24.867c6.098-0.258-37.328,36.445-37.328,36.445
		c-49.753,35.607-107.807,81.82-120.659,81.943c0.124-12.852,46.337-70.904,81.944-120.658c0,0,21.479-27.783,36.328-34.854
		c14.85-7.072-23.711,40.695-20.389,44.901s39.48-37.359,55.036-40.895C186.335,331.449,125.641,389.079,128.823,392.968z"/>
	<path fill="#E74425" d="M89.002,427.627c3.182,3.889,46.947-33.771,46.716-30.005c-0.515,8.412-36.604,35.744-36.604,35.744
		c-49.754,35.607-68.402,53-81.254,53.123c0.124-12.852,8.001-18.611,43.608-68.363c0,0,32.884-42.777,39.25-45.959
		c13.434-6.719-26.691,35.751-26.164,44.193c0.354,5.656,57.439-45.449,49.139-31.824C117.981,393.91,85.82,423.737,89.002,427.627z
		"/>
	<path fill="none" stroke="#000000" stroke-width="4" stroke-miterlimit="10" d="M359.342,160.563
		c10.605,26.164,0.062,25.521-80.012,116.566c-60.394,68.669-75.9,80.959-140.812,127.416
		c-49.753,35.607-107.807,81.82-120.659,81.943c0.124-12.852,46.337-70.904,81.944-120.658
		c46.457-64.912,58.747-80.419,127.416-140.812c91.045-80.074,90.402-90.617,116.566-80.012"/>
</g>
<g id="New_Symbol_2_">
	
		<path fill="#ACB394" stroke="#000000" stroke-width="3.25" stroke-linecap="round" stroke-linejoin="round" stroke-miterlimit="10" d="
		M228.828,98.1c-3.515-12.299,2.232-20.512,14.094-23.593c6.754-1.754,17.245-0.939,24.743-0.536
		c7.123,0.383,17.109-1.153,24.828-5.806c20.144-12.14,32.918-39.425,10.333-55.553c30.572,17.892,15.209,84.879-29.187,98.128
		c-13.929,4.156-23.841,5.561-34.41-2.82L228.828,98.1z"/>
	<path fill="#FFFA2A" d="M238.939,108.211c6.894,17.006,0.041,16.589-52.008,75.768c-39.256,44.635-49.335,52.624-91.528,82.82
		c-32.34,23.145-70.075,53.184-78.428,53.264c0.081-8.354,30.119-46.088,53.263-78.428c30.197-42.193,38.186-52.272,82.821-91.528
		c59.179-52.048,58.761-58.901,75.768-52.007L238.939,108.211z"/>
	<g>
		<g>
			<path fill="#B2FBFC" d="M155.135,199.129c-4.601,0-8.927-1.792-12.18-5.046c-3.254-3.253-5.045-7.578-5.045-12.179
				c-0.001-4.601,1.792-8.927,5.045-12.18c3.253-3.253,7.579-5.044,12.18-5.044c4.602,0,8.927,1.791,12.18,5.044
				c3.253,3.253,5.045,7.579,5.045,12.18c0,4.602-1.792,8.927-5.045,12.18C164.061,197.337,159.736,199.129,155.135,199.129z"/>
			<path d="M155.134,166.305c3.992,0,7.985,1.522,11.031,4.569c6.092,6.092,6.092,15.97,0,22.062
				c-3.046,3.046-7.039,4.569-11.03,4.569c-3.993,0-7.985-1.523-11.031-4.57c-6.092-6.092-6.093-15.969,0-22.061
				C147.15,167.827,151.143,166.305,155.134,166.305 M155.134,163.055c-5.035,0-9.768,1.96-13.329,5.521
				c-3.56,3.561-5.521,8.294-5.521,13.329c0,5.035,1.96,9.769,5.521,13.328c3.561,3.561,8.294,5.522,13.33,5.522
				c5.035,0,9.768-1.961,13.329-5.521c3.56-3.561,5.521-8.294,5.521-13.33s-1.961-9.769-5.521-13.329
				C164.903,165.015,160.169,163.055,155.134,163.055L155.134,163.055z"/>
		</g>
		<path fill="#EAFEFE" d="M164.192,190.962c-5.002,5.003-5.002-23.119,0-18.116C169.195,177.849,169.195,185.96,164.192,190.962z"/>
	</g>
	<path fill="#E62E25" stroke="#000000" stroke-width="3.25" stroke-miterlimit="10" d="M234.418,108.212
		c1.248,1.248,3.271,1.248,4.521,0c1.248-1.248,1.248-3.271,0-4.52l-5.592-5.592c-1.248-1.249-3.271-1.249-4.52,0
		c-1.249,1.249-1.249,3.272,0,4.521L234.418,108.212z"/>
	<path fill="#F6B930" d="M89.103,259.274c2.068,2.527,25.125-15.934,30.564-16.164c3.963-0.167-24.263,23.689-24.263,23.689
		c-32.34,23.145-70.075,53.184-78.428,53.264c0.081-8.354,30.119-46.088,53.263-78.428c0,0,13.961-18.059,23.613-22.655
		c9.652-4.597-15.412,26.452-13.252,29.186s25.662-24.284,35.773-26.582C126.485,219.287,87.034,256.746,89.103,259.274z"/>
	<path fill="#E74425" d="M63.218,281.803c2.068,2.527,30.516-21.951,30.366-19.503c-0.335,5.468-23.793,23.233-23.793,23.233
		c-32.34,23.145-44.462,34.45-52.815,34.53c0.081-8.354,5.201-12.098,28.345-44.437c0,0,21.375-27.805,25.512-29.874
		c8.732-4.367-17.349,23.239-17.006,28.726c0.23,3.677,37.335-29.542,31.94-20.686C82.055,259.887,61.15,279.274,63.218,281.803z"/>
	<path fill="none" stroke="#000000" stroke-width="3.25" stroke-miterlimit="10" d="M238.939,108.211
		c6.894,17.006,0.041,16.589-52.008,75.768c-39.256,44.635-49.335,52.624-91.528,82.82c-32.34,23.145-70.075,53.184-78.428,53.264
		c0.081-8.354,30.119-46.088,53.263-78.428c30.197-42.193,38.186-52.272,82.821-91.528c59.179-52.048,58.761-58.901,75.768-52.007"
		/>
</g>
<g id="New_Symbol_1_">
	
		<path fill="#ACB394" stroke="#000000" stroke-width="3.25" stroke-linecap="round" stroke-linejoin="round" stroke-miterlimit="10" d="
		M393.093,265.409c-3.515-12.3,2.232-20.512,14.095-23.593c6.754-1.754,17.245-0.939,24.743-0.536
		c7.123,0.383,17.109-1.153,24.828-5.806c20.144-12.14,32.918-39.425,10.333-55.553c30.572,17.892,15.209,84.879-29.187,98.128
		c-13.929,4.156-23.841,5.561-34.409-2.819L393.093,265.409z"/>
	<path fill="#FFFA2A" d="M403.205,275.521c6.894,17.007,0.041,16.589-52.008,75.769c-39.256,44.635-49.335,52.623-91.528,82.82
		c-32.339,23.145-70.074,53.184-78.428,53.264c0.081-8.354,30.119-46.088,53.263-78.428c30.197-42.193,38.186-52.272,82.821-91.528
		c59.179-52.049,58.762-58.901,75.768-52.008L403.205,275.521z"/>
	<g>
		<g>
			<path fill="#B2FBFC" d="M319.4,366.439c-4.601,0-8.927-1.792-12.18-5.046c-3.254-3.254-5.046-7.579-5.046-12.18
				s1.792-8.927,5.045-12.18c3.254-3.253,7.579-5.045,12.181-5.045s8.927,1.792,12.18,5.045s5.045,7.578,5.045,12.18
				s-1.792,8.927-5.045,12.18C328.327,364.647,324.002,366.439,319.4,366.439z"/>
			<path d="M319.4,333.614c3.992,0,7.984,1.522,11.03,4.568c6.092,6.093,6.092,15.971,0,22.062
				c-3.046,3.046-7.038,4.569-11.03,4.569s-7.984-1.523-11.03-4.57c-6.093-6.092-6.094-15.969-0.001-22.062
				C311.415,335.137,315.408,333.614,319.4,333.614 M319.4,330.364c-5.035,0-9.769,1.961-13.33,5.521
				c-3.56,3.561-5.521,8.294-5.521,13.329s1.961,9.769,5.521,13.328c3.561,3.562,8.294,5.522,13.329,5.522s9.768-1.961,13.329-5.521
				c3.56-3.56,5.521-8.293,5.521-13.329c0-5.035-1.961-9.769-5.521-13.329C329.168,332.325,324.435,330.364,319.4,330.364
				L319.4,330.364z"/>
		</g>
		<path fill="#EAFEFE" d="M328.458,358.272c-5.003,5.002-5.003-23.119,0-18.116C333.461,345.158,333.461,353.27,328.458,358.272z"/>
	</g>
	<path fill="#E62E25" stroke="#000000" stroke-width="3.25" stroke-miterlimit="10" d="M398.685,275.521
		c1.247,1.248,3.271,1.248,4.521-0.001c1.248-1.247,1.248-3.271,0-4.52l-5.593-5.591c-1.247-1.249-3.271-1.249-4.52-0.001
		s-1.248,3.272,0,4.521L398.685,275.521z"/>
	<path fill="#F6B930" d="M253.368,426.584c2.068,2.527,25.126-15.935,30.564-16.164c3.964-0.168-24.264,23.689-24.264,23.689
		c-32.339,23.145-70.074,53.184-78.428,53.264c0.081-8.354,30.119-46.088,53.263-78.428c0,0,13.961-18.06,23.614-22.655
		c9.652-4.597-15.413,26.452-13.253,29.186c2.16,2.734,25.662-24.283,35.773-26.581
		C290.751,386.597,251.299,424.056,253.368,426.584z"/>
	<path fill="#E74425" d="M227.484,449.112c2.068,2.527,30.516-21.951,30.366-19.503c-0.335,5.468-23.793,23.233-23.793,23.233
		c-32.34,23.145-44.462,34.45-52.815,34.53c0.081-8.354,5.201-12.098,28.345-44.437c0,0,21.375-27.806,25.512-29.873
		c8.732-4.367-17.349,23.238-17.006,28.726c0.23,3.677,37.335-29.542,31.94-20.686C246.321,427.196,225.416,446.584,227.484,449.112
		z"/>
	<path fill="none" stroke="#000000" stroke-width="3.25" stroke-miterlimit="10" d="M403.205,275.521
		c6.894,17.007,0.041,16.589-52.008,75.769c-39.256,44.635-49.335,52.623-91.528,82.82c-32.339,23.145-70.074,53.184-78.428,53.264
		c0.081-8.354,30.119-46.088,53.263-78.428c30.197-42.193,38.186-52.272,82.821-91.528c59.179-52.049,58.762-58.901,75.768-52.008"
		/>
</g>
</svg>
